<!-- <svg width="150" height="150" viewBox="0 0 150 150" fill="none" xmlns="http://www.w3.org/2000/svg">
<rect width="150" height="150" fill="#613941"/>
<path fill-rule="evenodd" clip-rule="evenodd" d="M68.1698 28.9857H27.7971V28.9857V41.0975V69.3584H39.9089L39.9089 41.0975H68.1698V28.9857ZM122 28.9857V69.3584H109.888V41.0975L81.6273 41.0975V28.9857H109.888H122ZM122 121.843H81.6274V109.731H109.888V81.4702H122V109.731V121.843ZM27.7971 121.843L27.7971 81.4702H39.9089L39.9089 109.731L68.1698 109.731V121.843H39.9089H27.7971ZM41.2547 70.7043H68.1698V80.1246H41.2547V70.7043ZM108.542 70.7043H81.6273V80.1246H108.542V70.7043Z" fill="#F5EEDC"/>
</svg> -->

<svg width="150" height="150" viewBox="0 0 150 150" fill="none" xmlns="http://www.w3.org/2000/svg">
<rect width="150" height="150" rx="8" fill="#613941"/>
<path d="M18 105.38V106H62.3133V97.63H61.6944V97.878C61.6944 102.032 53.5249 105.38 39.2902 105.38H29.0164V78.72C30.8731 80.518 33.3487 81.572 36.1957 81.572C42.3228 81.572 45.7267 77.728 51.1731 77.728C53.5249 77.728 55.7529 79.092 55.7529 81.262H56.3718C56.3718 77.604 53.3392 74.442 48.4499 74.442C40.8993 74.442 37.7429 79.774 33.3487 79.898C31.5539 79.96 30.0067 79.03 29.0164 77.728V44.62H36.9383C42.8179 44.62 61.6944 45.302 61.6944 54.23H62.3133V44H18V44.62C23.3225 44.62 23.6939 49.022 23.6939 61.236V88.764C23.6939 100.978 23.3225 105.38 18 105.38Z" fill="#F4EFDB"/>
<path d="M87.6867 105.38V106H132V97.63H131.381V97.878C131.381 102.032 123.212 105.38 108.977 105.38H98.7031V78.72C100.56 80.518 103.035 81.572 105.882 81.572C112.01 81.572 115.413 77.728 120.86 77.728C123.212 77.728 125.44 79.092 125.44 81.262H126.059C126.059 77.604 123.026 74.442 118.137 74.442C110.586 74.442 107.43 79.774 103.035 79.898C101.241 79.96 99.6934 79.03 98.7031 77.728V44.62H106.625C112.505 44.62 131.381 45.302 131.381 54.23H132V44H87.6867V44.62C93.0093 44.62 93.3806 49.022 93.3806 61.236V88.764C93.3806 100.978 93.0093 105.38 87.6867 105.38Z" fill="#F4EFDB"/>
</svg>